<svg xmlns="http://www.w3.org/2000/svg" viewBox="0 0 16 16">
    <defs>
        <lineargradient id="svgGradient" x1="0" y1="0" x2="20" y2="0" gradientUnits="userSpaceOnUse">
            <stop offset="0" stop-color="#00ffc3" />
            <stop offset="0.09090909090909091" stop-color="#00fad9" />
            <stop offset="0.18181818181818182" stop-color="#00f4f0" />
            <stop offset="0.2727272727272727" stop-color="#00eeff" />
            <stop offset="0.36363636363636365" stop-color="#00e6ff" />
            <stop offset="0.4545454545454546" stop-color="#00dcff" />
            <stop offset="0.5454545454545454" stop-color="#00d2ff" />
            <stop offset="0.6363636363636364" stop-color="#00c5ff" />
            <stop offset="0.7272727272727273" stop-color="#00b8ff" />
            <stop offset="0.8181818181818182" stop-color="#6da8ff" />
            <stop offset="0.9090909090909092" stop-color="#9f97ff" />
            <stop offset="1" stop-color="#c285ff" />
        </lineargradient>
    </defs>
    <path fill-rule="evenodd" d="m8 3.293 6 6V13.5a1.5 1.5 0 0 1-1.5 1.5h-9A1.5 1.5 0 0 1 2 13.5V9.293l6-6zm5-.793V6l-2-2V2.5a.5.5 0 0 1 .5-.5h1a.5.5 0 0 1 .5.5z" />
    <path fill-rule="evenodd" d="M7.293 1.5a1 1 0 0 1 1.414 0l6.647 6.646a.5.5 0 0 1-.708.708L8 2.207 1.354 8.854a.5.5 0 1 1-.708-.708L7.293 1.5z" />
</svg>